<?xml version="1.0" encoding="utf-8"?>
<!-- Svg Vector Icons : http://www.onlinewebfonts.com/icon -->
<!DOCTYPE svg PUBLIC "-//W3C//DTD SVG 1.1//EN" "http://www.w3.org/Graphics/SVG/1.1/DTD/svg11.dtd">
<svg version="1.1" xmlns="http://www.w3.org/2000/svg" xmlns:xlink="http://www.w3.org/1999/xlink" x="0px" y="0px" viewBox="0 0 256 256" enable-background="new 0 0 256 256" xml:space="preserve">
<metadata> Svg Vector Icons : http://www.onlinewebfonts.com/icon </metadata>
<g><g><g><path fill="#000000" d="M63.4,10.5c-2.3,1-3.6,3-3.6,5.6c0,1.3,0.3,2.7,0.8,3.4c1.8,2.7-3.2,2.5,83.8,2.5c44.1,0,80.2,0.1,80.2,0.3c0,0.2-48.3,48.7-107.3,107.7L10,237.3v2.3c0,2.9,1.2,4.8,3.5,5.8c4.1,1.7-4.6,9.9,112.4-107.1c59-58.9,107.3-107.1,107.6-107.1c0.2,0,0.3,36.1,0.3,80.2c0,88.2-0.2,82.2,2.9,83.9c3.1,1.6,7,0.5,8.5-2.4c0.7-1.5,0.8-9.2,0.8-90.1c0-87.8,0-88.4-1-90c-2-3.2,4.5-3-92.2-3C80.3,9.9,64.7,10,63.4,10.5z"/></g></g></g>
</svg>